<?xml version="1.0" standalone="no"?>
<!DOCTYPE svg PUBLIC "-//W3C//DTD SVG 20010904//EN"
 "http://www.w3.org/TR/2001/REC-SVG-20010904/DTD/svg10.dtd">
<svg version="1.0" xmlns="http://www.w3.org/2000/svg"
 width="637.000000pt" height="202.000000pt" viewBox="0 0 637.000000 202.000000"
 preserveAspectRatio="xMidYMid meet">

<g transform="translate(0.000000,202.000000) scale(0.100000,-0.100000)"
fill="#000000" stroke="none">
<path d="M680 2009 c-78 -13 -206 -60 -286 -104 -44 -24 -100 -69 -155 -125
-71 -71 -94 -103 -133 -181 -57 -115 -76 -200 -76 -344 0 -165 31 -273 115
-406 97 -152 256 -265 450 -321 70 -20 101 -23 255 -22 162 0 182 2 265 28
270 83 464 277 531 531 25 95 25 293 0 385 -40 149 -131 293 -235 375 -31 25
-62 50 -69 55 -26 22 -150 80 -212 99 -127 40 -314 52 -450 30z m307 -423 c63
-31 132 -108 156 -172 63 -167 8 -379 -119 -463 -126 -83 -308 -61 -408 49
-49 54 -72 108 -86 197 -17 109 3 205 61 289 85 124 261 169 396 100z m573
-166 c0 -5 -5 -10 -11 -10 -5 0 -7 5 -4 10 3 6 8 10 11 10 2 0 4 -4 4 -10z
m-300 -70 c0 -5 -4 -10 -10 -10 -5 0 -10 5 -10 10 0 6 5 10 10 10 6 0 10 -4
10 -10z m315 -20 c3 -5 2 -10 -4 -10 -5 0 -13 5 -16 10 -3 6 -2 10 4 10 5 0
13 -4 16 -10z"/>
<path d="M5806 1943 c3 -27 25 -228 47 -448 l42 -400 190 -3 190 -2 44 427
c23 236 45 438 48 451 l5 22 -285 0 -286 0 5 -47z"/>
<path d="M2284 1680 c-73 -13 -174 -52 -240 -91 -74 -45 -176 -154 -214 -229
-56 -110 -75 -258 -49 -382 32 -156 161 -319 309 -391 118 -58 184 -71 345
-72 159 0 233 17 359 83 330 172 398 639 133 904 -38 38 -73 66 -78 63 -5 -4
-9 -2 -9 4 0 14 -133 78 -200 97 -66 18 -285 27 -356 14z m-124 -280 c0 -5 -4
-10 -10 -10 -5 0 -10 5 -10 10 0 6 5 10 10 10 6 0 10 -4 10 -10z m337 -91 c74
-28 113 -99 113 -209 0 -91 -22 -145 -75 -185 -72 -55 -188 -40 -244 31 -58
74 -56 241 4 312 47 56 133 78 202 51z m-573 -325 c3 -8 2 -12 -4 -9 -6 3 -10
10 -10 16 0 14 7 11 14 -7z m406 -98 c0 -3 -4 -8 -10 -11 -5 -3 -10 -1 -10 4
0 6 5 11 10 11 6 0 10 -2 10 -4z m455 -136 c3 -5 1 -10 -4 -10 -6 0 -11 5 -11
10 0 6 2 10 4 10 3 0 8 -4 11 -10z m45 -100 c0 -5 -4 -10 -10 -10 -5 0 -10 5
-10 10 0 6 5 10 10 10 6 0 10 -4 10 -10z"/>
<path d="M3850 1674 c-30 -8 -81 -32 -112 -53 l-57 -39 6 44 5 44 -226 0 -226
0 0 -770 0 -770 235 0 235 0 0 235 0 234 48 -29 c178 -110 459 -66 619 96 71
72 134 190 153 289 17 82 15 227 -5 309 -46 201 -205 366 -396 411 -80 18
-207 18 -279 -1z m97 -365 c75 -28 116 -102 116 -210 0 -153 -80 -238 -205
-218 -61 10 -102 39 -131 92 -17 34 -22 59 -22 127 0 75 3 91 28 132 44 76
133 108 214 77z m53 -473 c0 -3 -4 -8 -10 -11 -5 -3 -10 -1 -10 4 0 6 5 11 10
11 6 0 10 -2 10 -4z"/>
<path d="M5030 1676 c-128 -28 -225 -74 -291 -138 -136 -132 -139 -358 -7
-473 76 -66 148 -89 385 -124 72 -10 140 -24 152 -30 29 -16 26 -37 -6 -58
-61 -40 -371 -3 -467 57 -19 11 -37 20 -42 20 -5 0 -18 -21 -28 -48 -10 -26
-39 -94 -63 -152 -52 -123 -57 -113 80 -158 331 -110 710 -69 873 93 70 70 96
123 102 211 7 104 -11 164 -65 224 -82 91 -161 121 -403 155 -128 18 -180 35
-180 59 0 62 221 69 382 11 40 -15 80 -29 88 -31 11 -4 29 29 72 133 31 76 60
146 63 155 8 21 -33 40 -165 75 -120 31 -375 41 -480 19z m260 -836 c0 -5 -4
-10 -10 -10 -5 0 -10 5 -10 10 0 6 5 10 10 10 6 0 10 -4 10 -10z"/>
<path d="M5998 997 c-140 -40 -215 -169 -178 -305 13 -52 77 -125 135 -155 58
-31 202 -31 261 0 90 48 144 130 144 223 0 95 -58 182 -145 221 -56 25 -159
32 -217 16z"/>
</g>
</svg>
