<svg xmlns="http://www.w3.org/2000/svg" xmlns:xlink="http://www.w3.org/1999/xlink" viewBox="0 0 512 512"><circle cx="256" cy="256" r="256" fill="#005c83"/><path d="M300.62 508.117C420.732 487.004 512 382.164 512 256l-.1-7.04-136.457-136.456L96.2 203.707l91.463 91.463-89.08 10.9L300.62 508.117z" fill="#00263f"/><use xlink:href="#B" fill="#ffecb3"/><path d="M255.95 123.5h108.5v82.18h-108.5z" fill="#ffd863"/><use xlink:href="#C" fill="#ff6838"/><path d="M255.95 194.68h119.5v22h-119.5zm0-82.18h119.5v22h-119.5z" fill="#ae4e32"/><use xlink:href="#B" y="100.392" fill="#ffecb3"/><path d="M255.95 223.9h108.5v82.18h-108.5z" fill="#ffd863"/><g fill="#35ccff"><use xlink:href="#C" y="100.392"/><path d="M255.95 295.07h119.5v22h-119.5zm0-82.17h119.5v22h-119.5z"/></g><path d="M341.968 434.16l-79.534-79.534 33.94-33.94 79.534 79.534z" fill="#ff6838"/><path d="M357.134 418.984L277.6 339.45l18.774-18.774 79.534 79.534z" fill="#ae4e32"/><circle cx="224.18" cy="287.74" r="74.56" fill="#fff"/><path d="M298.746 287.737c0-41.18-33.384-74.564-74.564-74.564-20.158 0-38.435 8.013-51.856 21.01l105.41 105.41c12.998-13.42 21.01-31.698 21.01-51.856z" fill="#e0e0e0"/><path d="M224.182 379.3c-50.49 0-91.564-41.076-91.564-91.564s41.075-91.564 91.564-91.564 91.564 41.075 91.564 91.564S274.67 379.3 224.182 379.3zm0-149.13c-31.74 0-57.564 25.823-57.564 57.564S192.44 345.3 224.182 345.3s57.564-25.823 57.564-57.564-25.823-57.564-57.564-57.564z" fill="#ffcf35"/><path d="M224.182 230.172c31.74 0 57.564 25.823 57.564 57.564 0 15.44-6.122 29.468-16.05 39.816l24.04 24.04c16.084-16.508 26-39.043 26-63.857 0-50.49-41.075-91.564-91.564-91.564-24.814 0-47.35 9.926-63.856 26l24.04 24.04c10.347-9.93 24.375-16.05 39.815-16.05z" fill="#ffb344"/><defs ><path id="B" d="M130.532 205.68h233.912v-82.176H130.532c-22.692 0-41.088 18.396-41.088 41.088s18.395 41.088 41.088 41.088z"/><path id="C" d="M375.443 216.68H130.53c-28.722 0-52.088-23.367-52.088-52.088s23.366-52.088 52.088-52.088h244.912v22H130.53c-16.59 0-30.088 13.498-30.088 30.088s13.497 30.088 30.088 30.088h244.912v22z"/></defs></svg>